<?xml version="1.0" encoding="UTF-8" standalone="no"?>
<svg
   xmlns:osb="http://www.openswatchbook.org/uri/2009/osb"
   xmlns:dc="http://purl.org/dc/elements/1.1/"
   xmlns:cc="http://creativecommons.org/ns#"
   xmlns:rdf="http://www.w3.org/1999/02/22-rdf-syntax-ns#"
   xmlns:svg="http://www.w3.org/2000/svg"
   xmlns="http://www.w3.org/2000/svg"
   xmlns:sodipodi="http://sodipodi.sourceforge.net/DTD/sodipodi-0.dtd"
   xmlns:inkscape="http://www.inkscape.org/namespaces/inkscape"
   width="188.02602mm"
   height="25.154999mm"
   viewBox="0 0 188.02602 25.154999"
   version="1.1"
   id="svg8"
   inkscape:version="1.0.2-2 (e86c870879, 2021-01-15)"
   sodipodi:docname="logo-f0.svg">
  <defs
     id="defs2">
    <linearGradient
       id="linearGradient2813"
       osb:paint="solid">
      <stop
         style="stop-color:#9cd9ff;stop-opacity:1;"
         offset="0"
         id="stop2811" />
    </linearGradient>
    <linearGradient
       id="linearGradient2783"
       osb:paint="solid">
      <stop
         style="stop-color:#000000;stop-opacity:1;"
         offset="0"
         id="stop2781" />
    </linearGradient>
  </defs>
  <sodipodi:namedview
     id="base"
     pagecolor="#ffffff"
     bordercolor="#666666"
     borderopacity="1.0"
     inkscape:pageopacity="0.0"
     inkscape:pageshadow="2"
     inkscape:zoom="0.98994949"
     inkscape:cx="236.09388"
     inkscape:cy="120.19916"
     inkscape:document-units="mm"
     inkscape:current-layer="layer1"
     inkscape:document-rotation="0"
     showgrid="false"
     showguides="false"
     fit-margin-top="0"
     fit-margin-left="0"
     fit-margin-right="0"
     fit-margin-bottom="0"
     inkscape:window-width="1920"
     inkscape:window-height="1017"
     inkscape:window-x="1016"
     inkscape:window-y="84"
     inkscape:window-maximized="1" />
  <metadata
     id="metadata5">
    <rdf:RDF>
      <cc:Work
         rdf:about="">
        <dc:format>image/svg+xml</dc:format>
        <dc:type
           rdf:resource="http://purl.org/dc/dcmitype/StillImage" />
        <dc:title></dc:title>
      </cc:Work>
    </rdf:RDF>
  </metadata>
  <g
     inkscape:label="Layer 1"
     inkscape:groupmode="layer"
     id="layer1"
     transform="translate(-2.5694788,-78.879939)">
    <path
       style="fill:#c23ccb;fill-opacity:1;stroke:none;stroke-width:0.264583px;stroke-linecap:butt;stroke-linejoin:miter;stroke-opacity:1"
       d="m 22.300595,95.061011 c 2.383231,-7.534151 20.287711,-13.445619 38.175593,-13.796129 36.48347,-0.714889 113.014882,7.937499 113.014882,7.937499 0,0 -82.80524,9.901735 -90.714284,11.150299 -7.134347,1.12627 -18.445823,2.16993 -41.489801,2.0466 -5.363608,-0.0287 -20.604047,-2.22434 -18.98639,-7.338269 z"
       id="path835"
       sodipodi:nodetypes="sscsss" />
    <path
       style="fill:none;stroke:#56c4bf;stroke-width:0.6;stroke-linecap:butt;stroke-linejoin:miter;stroke-miterlimit:4;stroke-dasharray:none;stroke-opacity:1"
       d="m 2.6458333,94.872023 c 0,0 13.2493657,-3.486993 19.1839917,-6.601615 5.779237,-3.033069 15.401888,-6.043684 21.826424,-7.194518 20.215795,-3.621277 38.187481,-1.063187 57.263391,-0.377974 26.52277,0.952707 52.86617,4.953148 79.375,6.236607 3.42984,0.16606 10.29985,0.188989 10.29985,0.188989"
       id="path2817"
       sodipodi:nodetypes="cssaac" />
    <path
       style="fill:none;stroke:#56c4bf;stroke-width:0.6;stroke-linecap:butt;stroke-linejoin:miter;stroke-miterlimit:4;stroke-dasharray:none;stroke-opacity:1"
       d="M 3.7797618,99.218749 22.300595,95.06101"
       id="path2819" />
    <path
       style="fill:none;fill-opacity:1;stroke:#56c4bf;stroke-width:0.605036;stroke-linecap:butt;stroke-linejoin:miter;stroke-miterlimit:4;stroke-dasharray:none;stroke-opacity:1"
       d="M 173.20433,89.202381 190.5,89.580356"
       id="path2821" />
    <path
       style="fill:none;stroke:#56c4bf;stroke-width:0.6;stroke-linecap:butt;stroke-linejoin:miter;stroke-miterlimit:4;stroke-dasharray:none;stroke-opacity:1"
       d="m 5.4806548,103.75446 c 0,0 7.3821032,-2.80176 18.8890882,-1.46723 12.858114,1.49123 26.732218,1.23603 33.082637,1.08926 27.798384,-0.64247 69.16964,-5.669646 71.05952,-6.047622 1.88988,-0.377976 28.43223,-3.264928 42.71131,-4.063243 5.5987,-0.313012 16.81994,-0.283484 16.81994,-0.283484 h 2.26786"
       id="path2823"
       sodipodi:nodetypes="csssacc" />
  </g>
</svg>
